<svg xmlns="http://www.w3.org/2000/svg" width="20" height="20" viewBox="0 0 20 20">
  <path id="chef" d="M18.711,8.711q-.293.313-.606.664t-.791.938a6.418,6.418,0,0,0-.772,1.172A2.334,2.334,0,0,0,16.25,12.5q0,.527-1.826.889A23.136,23.136,0,0,1,10,13.75a23.257,23.257,0,0,1-4.424-.361Q3.75,13.028,3.75,12.5a2.875,2.875,0,0,0-.527-1.416,10.183,10.183,0,0,0-.986-1.367Q1.778,9.2,1.328,8.75A4.193,4.193,0,0,1,0,5.625a4.216,4.216,0,0,1,1.279-3.1,4.22,4.22,0,0,1,3.1-1.279,4.777,4.777,0,0,1,.938.1A4.846,4.846,0,0,0,5,3.125,4.909,4.909,0,0,0,6.289,6.6Q6.25,5.547,6.25,4.375a4.6,4.6,0,0,1,1.094-3.1,3.4,3.4,0,0,1,5.312,0,4.6,4.6,0,0,1,1.094,3.1q0,1.192-.039,2.227A4.909,4.909,0,0,0,15,3.125a4.846,4.846,0,0,0-.313-1.777,4.777,4.777,0,0,1,.938-.1,4.216,4.216,0,0,1,3.1,1.279A4.22,4.22,0,0,1,20,5.625,4.168,4.168,0,0,1,18.711,8.711ZM9.99,15a22.677,22.677,0,0,0,4.424-.371q1.836-.371,1.836-.879v5q0,.508-1.836.879A22.682,22.682,0,0,1,9.99,20a22.526,22.526,0,0,1-4.414-.371Q3.75,19.258,3.75,18.75v-5q0,.527,1.826.889A23.073,23.073,0,0,0,9.99,15Z" fill="#fedc01"/>
</svg>
