<svg id="fast-food" xmlns="http://www.w3.org/2000/svg" width="108.917" height="100" viewBox="0 0 108.917 100">
  <path id="Path_109" data-name="Path 109" d="M105.728,48.311H83.906V24.159a3.189,3.189,0,0,0-6.379,0V48.311H55.706A3.189,3.189,0,0,0,52.516,51.5v1.7A51.481,51.481,0,0,0,40.7,51.855c-9.3,0-18.087,2.4-24.743,6.746C8.883,63.226,4.987,69.512,4.987,76.3c0,.1.006.207.016.308a14.361,14.361,0,0,0,.051,21.83c-.007.087-.013.175-.013.264v4.65A17.634,17.634,0,0,0,22.654,120.97h77.7a3.189,3.189,0,0,0,3.187-3.058l2.058-49.966h.133a3.189,3.189,0,0,0,3.189-3.189V51.5A3.189,3.189,0,0,0,105.728,48.311ZM58.9,54.69h43.644v6.877H69.3A30.761,30.761,0,0,0,65.443,58.6,37.611,37.611,0,0,0,58.9,55.218ZM11.838,73.115c1.012-3.392,3.627-6.57,7.61-9.173,5.63-3.68,13.178-5.707,21.253-5.707s15.622,2.027,21.252,5.707a23.353,23.353,0,0,1,3.756,3.02c.04.041.081.081.123.12a14.7,14.7,0,0,1,3.731,6.033H11.838ZM6.379,87.5a8.02,8.02,0,0,1,8.011-8.011H25.407l9.42,11.7a3.189,3.189,0,0,0,4.4.55L55.531,79.494H67.01a8.011,8.011,0,1,1,0,16.023H14.39A8.02,8.02,0,0,1,6.379,87.5ZM33.6,79.493H44.909L37.86,84.787ZM11.419,103.356V101.9H69.981v1.461a11.248,11.248,0,0,1-11.236,11.236H22.654a11.248,11.248,0,0,1-11.236-11.236Zm85.871,11.236H72.3a17.533,17.533,0,0,0,4.06-11.236v-4.65c0-.089-.006-.177-.013-.264a14.361,14.361,0,0,0,.051-21.83c.01-.1.016-.2.016-.308a17.943,17.943,0,0,0-2.091-8.359H99.21Z" transform="translate(0 -20.97)" fill="#fedc01"/>
</svg>
