<svg xmlns="http://www.w3.org/2000/svg" width="308.582" height="231" viewBox="0 0 308.582 231">
  <g id="Group_229" data-name="Group 229" transform="translate(-267.197 -205.601)">
    <g id="Group_38" data-name="Group 38" transform="translate(267.197 205.601)">
      <g id="Group_25" data-name="Group 25" transform="translate(38.003 0)">
        <path id="Path_23" data-name="Path 23" d="M631.341,799.4l-15.506-16.854-3.45,2.565s16.446,30.621,21.875,28.672C636.792,812.871,631.341,799.4,631.341,799.4Z" transform="translate(-612.386 -728.473)" fill="#ffb27d"/>
        <path id="Path_24" data-name="Path 24" d="M807.119,468.935s-6.126,3.609-2.367,10.6c0,0-5.363-.982-6.522-2.583a4.218,4.218,0,0,0,.334,1s-4.931-1.117-6.543-3.175,6.3-26.7,19.115-20.321c0,0,11.72,2.175,7.13,15.186s-.252,14.161-.252,14.161a6.39,6.39,0,0,1-1.946.121s-.766-.55-.809-1.065a3.13,3.13,0,0,0,.128,1.077s-4.8-.8-6.671-3.183S805.725,471.5,807.119,468.935Z" transform="translate(-762.337 -453.407)" fill="#233862"/>
        <path id="Path_25" data-name="Path 25" d="M830.91,675.442l-.022.008C830.85,675.445,830.859,675.442,830.91,675.442Z" transform="translate(-794.973 -638.966)" fill="#ffb27d"/>
        <path id="Path_26" data-name="Path 26" d="M846.032,594.5c.18,1.613.4,3.06.491,3.749.215,1.545-14.445.539-15.379.537.651-.284,2.64-6.592,3.27-9,.763-2.919,1.362-6.071,1.362-6.071l10.352.654.616.038a35.982,35.982,0,0,0-.842,3.981c-.025.166-.049.335-.071.5A26.876,26.876,0,0,0,846.032,594.5Z" transform="translate(-795.206 -562.307)" fill="#ffb27d"/>
        <path id="Path_27" data-name="Path 27" d="M843.609,480.394s-1.678-5.322-1.339-9.4c.242-2.914,4.391-12.854,14.363-8.624a14.567,14.567,0,0,1,5.256,3.754c1.848,2.116,4.228,6.258-1.787,14.3l-1.748,2.791Z" transform="translate(-804.467 -460.031)" fill="#233862"/>
        <path id="Path_28" data-name="Path 28" d="M869.3,596.005c-7.242-2.121-10.314-10.486-10.314-10.486,3.063.09,7.052,2.216,10.184,4.377-.025.166-.049.335-.071.5A26.875,26.875,0,0,0,869.3,596.005Z" transform="translate(-818.478 -563.816)" fill="#ed975d"/>
        <path id="Path_29" data-name="Path 29" d="M868.017,509.731s-13.083-3.234-10.944-11.35,1.891-14,10.335-12.278,9.244,5.244,9.188,8.127S871.476,510.363,868.017,509.731Z" transform="translate(-816.679 -480.481)" fill="#ffb27d"/>
        <path id="Path_30" data-name="Path 30" d="M857.073,478.942s-6.087,8.575-11.933,8.533-7.832-2.137-7.832-2.137a30.675,30.675,0,0,0,6.154-9.161S855.582,473.7,857.073,478.942Z" transform="translate(-800.359 -471.947)" fill="#233862"/>
        <path id="Path_31" data-name="Path 31" d="M950.993,494.107s2.1,2.83,2.2,5.069-.732,6.569.547,6.752c0,0,4.4-5.759,2.349-10.218C953.917,490.981,950.993,494.107,950.993,494.107Z" transform="translate(-895.367 -486.574)" fill="#233862"/>
        <path id="Path_32" data-name="Path 32" d="M887.7,487.259s-5.18,9.3-12.931,10.66c0,0,8.528-4.3,10.856-10.721S887.7,487.259,887.7,487.259Z" transform="translate(-831.667 -479.273)" fill="#233862"/>
        <path id="Path_33" data-name="Path 33" d="M912.464,599.733s.163,1.236.951,1.528a11.421,11.421,0,0,0,3.093.69,10.492,10.492,0,0,0,1-1.094S914.207,599.593,912.464,599.733Z" transform="translate(-863.168 -575.686)" fill="#fff"/>
        <path id="Path_34" data-name="Path 34" d="M759.091,1146.662q-.249,1.042-.5,2.063a37.509,37.509,0,0,0-4.16,10.887c-.752,4.139-.119,7.906.867,9.2,4.063,5.327-.253,45.537-.253,45.537l-2.437,4.405s-7.918-40.466-10.1-47.006c-.992-2.973-1.957-15.713-4.9-27.978q-.1-.973-.191-1.946c-.221-2.267-.433-4.526-.637-6.73-1.145-12.265-2-22.767-2-22.767s8.526-5.995,16.273-6.663c4.564-.4,8.856,1.055,10.976,6.663C765.124,1120.487,762,1134.575,759.091,1146.662Z" transform="translate(-714.68 -998.463)" fill="#ffb27d"/>
        <path id="Path_35" data-name="Path 35" d="M770.559,1362.481c4.063,5.327,0,47.6,0,47.6l-4.624,4.763s-8.039-41.738-10.219-48.277c-.992-2.973-2.436-15.671-3.711-28.634,3.853,1.72,13.254,5.464,20.979,4.954-.986,4.1-1.9,7.9-2.482,11.079C769.75,1358.108,769.573,1361.187,770.559,1362.481Z" transform="translate(-729.069 -1192.626)" fill="#313131"/>
        <path id="Path_36" data-name="Path 36" d="M788.447,1146.662c-6.336-4.575-15.249-12.717-18.483-26.064-.619-6.635,4.613-12.941,10.453-14.933,4.564-.4,8.856,1.055,10.976,6.663C794.48,1120.487,791.352,1134.575,788.447,1146.662Z" transform="translate(-744.036 -998.463)" fill="#ed975d"/>
        <path id="Path_37" data-name="Path 37" d="M1011.038,864.822l31.135,8.042V876.5s-30.984-.363-32.982-3.815S1011.038,864.822,1011.038,864.822Z" transform="translate(-943.524 -797.235)" fill="#ffb27d"/>
        <path id="Path_38" data-name="Path 38" d="M885.869,1147.924l-1.468,4.7s-39.732-21.7-45.179-25.873c-2.188-1.679-6.443-9.736-10.129-19.855-3.989-15.369-7.5-33.394-7.5-33.394s5.9-22.707,21.709-8.81c9.458,8.317,7.987,24.342,6.951,36.805-1.6,8.348-2.569,15.668.568,17.42,6.118,3.414,24.842,19.047,30.523,29.867Z" transform="translate(-787.221 -960.51)" fill="#ffb27d"/>
        <path id="Path_39" data-name="Path 39" d="M736.822,696.494c-.57,13.925-2.653,27.714-8.716,26.826-7.431-1.085-9.367-8.021-9.762-13.177a28.058,28.058,0,0,1,.844-7.451s2.835,1.144,4.477-1.069c2.279-3.071,1.012-25.813,2.4-28.455s10.412-4.338,10.412-4.338S737.39,682.73,736.822,696.494Z" transform="translate(-700.908 -633.441)" fill="#efd005"/>
        <path id="Path_40" data-name="Path 40" d="M737,788.6c-.57,13.925-2.653,27.714-8.716,26.826-7.431-1.085-9.367-8.021-9.762-13.177,1.825-.092,5.037-.537,6.313-2.484,1.827-2.786,7.528-20.725,7.528-20.725S734.61,783.066,737,788.6Z" transform="translate(-701.09 -725.545)" fill="#efd005"/>
        <path id="Path_41" data-name="Path 41" d="M815.24,676.048c2.014,2.861.905,8.408-3.32,12.873-2.624,2.773-6.177,4.413-11.959,3.561-2.52-.372-9.564-4.348-10.3-9.2-.132-.879-.207-1.393-.207-1.393s-3.206,3.211-3.326,3.817c-.054.273-.33,2.7-.374,3.03a11.665,11.665,0,0,0,.235,1.874s-15.319,6.7-27.983-.93c0,0-3.611-30.944-1.018-36.093,1.289-2.558,8.517-7.54,11.034-9.741A4.019,4.019,0,0,0,769,640.9c-.127-.812.807-2.181,1.59-1.932,1.513.485,5.8,2.6,8.81,1.8,1.5-.4,3.4-2.134,4.86-1.737,1.779.486-.1,4.766.908,4.822,1.389.068,8.892,1.569,9.521,2.779.219.422,2.374,6.131,5.077,13.686a.094.094,0,0,1,0,.02C804.845,674.509,812.284,671.849,815.24,676.048Z" transform="translate(-732.446 -608.461)" fill="#fedc01"/>
        <path id="Path_42" data-name="Path 42" d="M891.855,841.076s-.373-11.8-1.327-11.66-14.715,13.39-11.445,18.688S891.855,841.076,891.855,841.076Z" transform="translate(-834.852 -767.645)" fill="#efd005"/>
        <path id="Path_43" data-name="Path 43" d="M776.332,982.323a91.523,91.523,0,0,1-13.117,2.719c-9.674,1.338-23.2,1.82-35.275-2.719,0,0-1-17.972,1.866-27.34s4.2-13.853,4.2-13.853,11.466,2.875,23.11.645A37.759,37.759,0,0,0,762,940.513s7.183,15.25,9.158,21.785S776.332,982.323,776.332,982.323Z" transform="translate(-708.817 -860.492)"/>
        <path id="Path_44" data-name="Path 44" d="M910.626,982.323a91.528,91.528,0,0,1-13.117,2.719c-14.327-8.124-7.341-42.31-7.341-42.31q.638-.517,1.242-.957a37.762,37.762,0,0,0,4.884-1.262s7.183,15.25,9.158,21.785S910.626,982.323,910.626,982.323Z" transform="translate(-843.111 -860.492)" fill="#313131"/>
        <path id="Path_45" data-name="Path 45" d="M729.372,937.18c-3.545,5.833-8.847,26.083-7.065,31.326,4.63,7.325,30.8,10.2,34.419,0,4.162-11.732-5.147-30.34-5.147-30.34A49.635,49.635,0,0,1,729.372,937.18Z" transform="translate(-703.952 -857.706)" fill="#fff"/>
        <g id="Group_24" data-name="Group 24" transform="translate(24.562 76.899)">
          <path id="Path_46" data-name="Path 46" d="M774.7,928.629c-8.494,0-11.994-2.923-12.254-3.122l-.549-4c.082.06,11.478,6.9,29.115.35l-.374,3.03C783.857,927.408,779.113,928.629,774.7,928.629Z" transform="translate(-761.899 -921.507)" fill="#fff"/>
        </g>
        <path id="Path_47" data-name="Path 47" d="M1210.674,896.857s5.712-2.814,7.983-3.086,6.086-.363,6.086,0-4.087,2.9-5.177,3.086-3.179,1.728-2.543,1.91,4-.59,4.042,0-2.044.954-2.407,1.408-1.635,1-3.679.727-4.3-.409-4.3-.409A4,4,0,0,1,1210.674,896.857Z" transform="translate(-1112.024 -821.229)" fill="#ffb27d"/>
        <path id="Path_48" data-name="Path 48" d="M924.046,1358.068l-1.455,6.008s-42.116-21.753-47.564-25.93c-2.188-1.679-5.079-10.793-7.758-21.1,3.594.738,11.358,1.131,21.156-5.4-.689,8.363-1.185,15.123,1.951,16.875,6.118,3.414,24.069,19.143,29.751,29.963Z" transform="translate(-825.397 -1170.654)"/>
        <path id="Path_49" data-name="Path 49" d="M1201.272,1566.367a.337.337,0,0,1-.038-.008,2.631,2.631,0,0,1-1.629-1.711c-.378-.907-.492-1.652-.839-2.549l-1.422-2.454c-1.488-1.959-2.009-1.5-2.009-1.5s-.389.5-.963,1.156a11.991,11.991,0,0,1-3.434,2.987,2.994,2.994,0,0,0-1.471,1.151,2.835,2.835,0,0,0-.439,1.009s3.054.532,2.788,2.037c-.518,2.913-.4,3.442-.343,3.538l.018.02s5.208,2.726,6.874,3.261a13,13,0,0,1,5.473,3.884,1.714,1.714,0,0,0,1.458.459c.782-.123,1.8-.374,2.018-.853Z" transform="translate(-1094.298 -1376.621)"/>
        <path id="Path_50" data-name="Path 50" d="M794.752,1776.012l-2.495,1.35c-.907.321-1.655.413-2.572.765a5.315,5.315,0,0,0-2.421,1.772c-.7,2.861-1.7,2.68-1.7,2.68l-10.022.094c-.473-.236.328-2.259.712-2.637.948-.934,3.783-.464,4.818-3.4.583-1.649,3.459-6.777,3.459-6.777l.02-.018c.1-.05.63-.157,3.527.445,1.5.31,2.117-2.728,2.117-2.728a2.836,2.836,0,0,1,1,.468,3,3,0,0,1,1.108,1.5,11.993,11.993,0,0,0,2.887,3.519c.641.594,1.128,1,1.128,1S796.753,1774.581,794.752,1776.012Z" transform="translate(-748.614 -1551.673)"/>
      </g>
      <path id="Path_51" data-name="Path 51" d="M527.644,772.955c-3.742-.736-5.941-.464-6.955-.161-1.8.6-3.869,1.194-4.611,1-1.415-.371-8.16-3.318-7.542-3.317.348,0,2.066-.169,3.7-.219-.888-.839-1.748-1.708-1.608-1.839.487-.454,2.385.895,3.507,1.861a3.172,3.172,0,0,1,1.069.216c.717.362.89-.2,1.326-.361.221-.083.525.208.7.146-.866-.956-2.023-2.556-1.688-2.782.483-.326,2.391,1.1,3.858,1.442a2.723,2.723,0,0,1,1.787.994c.25.4,1.352.582,1.352.582l6.117.018Z" transform="translate(-487.56 -715.861)" fill="#ffb27d"/>
      <g id="Group_37" data-name="Group 37" transform="translate(0 42.175)">
        <g id="Group_27" data-name="Group 27" transform="translate(17.041)">
          <path id="Path_52" data-name="Path 52" d="M503.106,711.641a6.087,6.087,0,0,1-3.392,1.385,5.458,5.458,0,0,0-1.39-1.627l.3-1.232-2.941-.011h0l-3.033-.011-1.042,0-1.942-.007.29,1.264a5.625,5.625,0,0,0-1,1.022,3.491,3.491,0,0,0-2.361-.8,1.933,1.933,0,0,0-1.729,2.473,4.5,4.5,0,0,0,2.016,2.225,6.46,6.46,0,0,0,1.421.712,5.659,5.659,0,0,0,3.02,3l-.2.815a.32.32,0,0,0,.311.4h5.516a.3.3,0,0,0,.284-.4l-.283-.81a5.4,5.4,0,0,0,3.325-4.153l.037.125c1.176-.057,3.073-2.995,3.658-3.947l.008-.013h0c.108-.176.169-.281.169-.281C503.91,711.461,503.106,711.641,503.106,711.641Zm-17.615,2.2a1.107,1.107,0,0,1,.64-1.187,1.809,1.809,0,0,1,.633-.175,2.291,2.291,0,0,1,1.735.665,4.682,4.682,0,0,0-.534,2.167,4.635,4.635,0,0,0,.189,1.31C487.283,716.129,485.783,715,485.491,713.838Z" transform="translate(-484.786 -710.135)" fill="#d65751"/>
          <g id="Group_26" data-name="Group 26" transform="translate(1.346)">
            <path id="Path_53" data-name="Path 53" d="M576.07,723.98a1.7,1.7,0,0,0-.33-.1l.584,1.952c1.176-.057,3.073-2.995,3.659-3.947C579.826,722.1,577.916,724.7,576.07,723.98Z" transform="translate(-562.144 -719.956)" fill="#9e332e"/>
            <path id="Path_54" data-name="Path 54" d="M499.911,715.141c-.03-2,2.3-3.742,2.3-3.742l-.948-.061a4.81,4.81,0,0,1-2.786-1.193l-.03,0-1.942-.007.29,1.264a5.561,5.561,0,0,0-1.172,1.264c-.613-.191-2.04-.553-2.648-.015l0,0a1.809,1.809,0,0,1,.633-.175,2.291,2.291,0,0,1,1.735.665,4.681,4.681,0,0,0-.534,2.167,5.29,5.29,0,0,0,3.354,4.731l-.2.815a.32.32,0,0,0,.311.4H502.3l.3-1.162C501.264,719.767,499.941,717.137,499.911,715.141Z" transform="translate(-492.977 -710.135)" fill="#9e332e"/>
          </g>
        </g>
        <g id="Group_30" data-name="Group 30" transform="translate(27.782 5.787)">
          <g id="Group_29" data-name="Group 29">
            <g id="Group_28" data-name="Group 28">
              <path id="Path_55" data-name="Path 55" d="M643.816,755.871c-.1-.4.524-.648.524-.648l.289.818S643.92,756.273,643.816,755.871Z" transform="translate(-628.422 -753.603)" fill="#f99746"/>
              <path id="Path_56" data-name="Path 56" d="M551,751.038a.671.671,0,0,0,.205.923l.038.024a.6.6,0,0,0-.181.424c.051,1.03,14.645-.1,14.645-.1s-.161-.151-.429-.362a.669.669,0,0,0-.574-1.2l-.439.155a.662.662,0,0,0-.292.209,3.251,3.251,0,0,0-2.211-.379c-.045.012-.092.021-.137.032l-.157-.652s-.7.2-.633.637a.3.3,0,0,0,.062.145l-.046.006a.715.715,0,0,0-.019-.157.723.723,0,0,0-.87-.532l-.487.118a.721.721,0,0,0-.545.629l-.193-.008a1.09,1.09,0,0,0-.5-.044.668.668,0,0,0-.358-.533l-.414-.213a.671.671,0,0,0-.9.288.658.658,0,0,0-.071.32l-.42-.036c-.076-.006-.158-.009-.242-.011l-.349-.668s-.566.322-.433.7h-.007a.67.67,0,0,0-.894-.269l-.153.08a.668.668,0,0,0-1.128-.708l-.279.373a.671.671,0,0,0,.132.935.306.306,0,0,0-.341-.037.643.643,0,0,0-.057-.045l-.393-.25a.671.671,0,0,0-.922.2c.247-.329-.369-.742-.369-.742l-.466.731S550.748,751.366,551,751.038Zm1.75.164a.359.359,0,0,0-.031-.034c.015.012.032.019.048.029Z" transform="translate(-550.168 -748.896)" fill="#f99746"/>
              <path id="Path_57" data-name="Path 57" d="M571.7,746.192c-.309-.276.077-.83.077-.83l.694.52S572.009,746.469,571.7,746.192Z" transform="translate(-568.062 -745.362)" fill="#f99746"/>
              <path id="Path_58" data-name="Path 58" d="M584.025,751.261l.4-.771s.655.357.434.708S584.025,751.261,584.025,751.261Z" transform="translate(-578.463 -749.648)" fill="#f99746"/>
            </g>
            <path id="Path_59" data-name="Path 59" d="M551.253,764.364v1.057a1.681,1.681,0,0,0,1.676,1.676h12.5a1.681,1.681,0,0,0,1.676-1.676v-1.057Z" transform="translate(-551.075 -761.242)" fill="#9e332e"/>
          </g>
          <path id="Path_60" data-name="Path 60" d="M556.039,764.364v1.057a1.681,1.681,0,0,0,1.676,1.676h6.81a1.681,1.681,0,0,0,1.676-1.676v-1.057Z" transform="translate(-555.075 -761.242)" fill="#b5453c"/>
        </g>
        <path id="Path_61" data-name="Path 61" d="M433.781,773.124H381.769a.717.717,0,1,0,0,1.433h4.672l.318.084a22.394,22.394,0,0,0,5.714.741h30.605a22.393,22.393,0,0,0,5.714-.741l.318-.084h4.672a.717.717,0,1,0,0-1.433Z" transform="translate(-381.052 -762.776)"/>
        <g id="Group_32" data-name="Group 32" transform="translate(2.408 4.977)">
          <g id="Group_31" data-name="Group 31" transform="translate(0 0.394)">
            <path id="Path_62" data-name="Path 62" d="M398.724,745.94l-.025-.433c-1.341-.163-2.565-.94-2.567-1.63a.58.58,0,0,1,.228-.534,1.253,1.253,0,0,1,1.122.13l.186-.38a1.6,1.6,0,0,0-1.534-.109.972.972,0,0,0-.427.895C395.711,744.924,397.313,745.768,398.724,745.94Z" transform="translate(-395.708 -742.834)" fill="#9e332e"/>
          </g>
          <path id="Path_63" data-name="Path 63" d="M406.311,744.272a4.329,4.329,0,0,1-2.154-3.522.3.3,0,0,1,.293-.317h7.282a.3.3,0,0,1,.293.317,4.328,4.328,0,0,1-2.154,3.522.21.21,0,0,0-.021.358,3.5,3.5,0,0,1,1.1,1.244h-5.724a3.5,3.5,0,0,1,1.1-1.244A.21.21,0,0,0,406.311,744.272Z" transform="translate(-402.768 -740.433)" fill="#b5453c"/>
          <path id="Path_64" data-name="Path 64" d="M428.2,744.2c-1.254.22-.572.572.176.638a2.207,2.207,0,0,1,1.71,1.04h.381a3.5,3.5,0,0,0-1.1-1.244.21.21,0,0,1,.021-.358,4.328,4.328,0,0,0,2.154-3.522.3.3,0,0,0-.293-.317A4.736,4.736,0,0,1,428.2,744.2Z" transform="translate(-422.277 -740.433)" fill="#9e332e"/>
        </g>
        <g id="Group_34" data-name="Group 34" transform="translate(13.111 4.977)">
          <g id="Group_33" data-name="Group 33" transform="translate(0 0.394)">
            <path id="Path_65" data-name="Path 65" d="M463.877,745.94l-.025-.433c-1.341-.163-2.565-.94-2.567-1.63a.58.58,0,0,1,.229-.534,1.253,1.253,0,0,1,1.122.13l.186-.38a1.6,1.6,0,0,0-1.533-.109.972.972,0,0,0-.427.895C460.864,744.924,462.466,745.768,463.877,745.94Z" transform="translate(-460.861 -742.834)" fill="#9e332e"/>
          </g>
          <path id="Path_66" data-name="Path 66" d="M471.464,744.272a4.328,4.328,0,0,1-2.154-3.522.3.3,0,0,1,.293-.317h7.282a.3.3,0,0,1,.293.317,4.329,4.329,0,0,1-2.154,3.522.21.21,0,0,0-.02.358,3.5,3.5,0,0,1,1.1,1.244h-5.724a3.5,3.5,0,0,1,1.1-1.244A.21.21,0,0,0,471.464,744.272Z" transform="translate(-467.921 -740.433)" fill="#b5453c"/>
          <path id="Path_67" data-name="Path 67" d="M493.347,744.2c-1.254.22-.572.572.176.638a2.207,2.207,0,0,1,1.71,1.04h.381a3.5,3.5,0,0,0-1.1-1.244.21.21,0,0,1,.02-.358,4.328,4.328,0,0,0,2.154-3.522.3.3,0,0,0-.293-.317A4.736,4.736,0,0,1,493.347,744.2Z" transform="translate(-487.429 -740.433)" fill="#9e332e"/>
        </g>
        <g id="Group_36" data-name="Group 36" transform="translate(39.361 4.977)">
          <g id="Group_35" data-name="Group 35" transform="translate(0 0.394)">
            <path id="Path_68" data-name="Path 68" d="M623.665,745.94l-.025-.433c-1.341-.163-2.565-.94-2.567-1.63a.58.58,0,0,1,.229-.534,1.253,1.253,0,0,1,1.122.13l.186-.38a1.6,1.6,0,0,0-1.533-.109.971.971,0,0,0-.427.895C620.652,744.924,622.254,745.768,623.665,745.94Z" transform="translate(-620.649 -742.834)" fill="#9e332e"/>
          </g>
          <path id="Path_69" data-name="Path 69" d="M631.252,744.272a4.328,4.328,0,0,1-2.154-3.522.3.3,0,0,1,.293-.317h7.282a.3.3,0,0,1,.293.317,4.329,4.329,0,0,1-2.154,3.522.21.21,0,0,0-.021.358,3.5,3.5,0,0,1,1.1,1.244H630.17a3.5,3.5,0,0,1,1.1-1.244A.21.21,0,0,0,631.252,744.272Z" transform="translate(-627.709 -740.433)" fill="#b5453c"/>
          <path id="Path_70" data-name="Path 70" d="M653.135,744.2c-1.254.22-.572.572.176.638a2.207,2.207,0,0,1,1.71,1.04h.381a3.5,3.5,0,0,0-1.1-1.244.21.21,0,0,1,.021-.358,4.329,4.329,0,0,0,2.154-3.522.3.3,0,0,0-.293-.317A4.736,4.736,0,0,1,653.135,744.2Z" transform="translate(-647.217 -740.433)" fill="#9e332e"/>
        </g>
      </g>
    </g>
    <g id="Group_54" data-name="Group 54" transform="translate(418.216 252.174)">
      <path id="Path_71" data-name="Path 71" d="M1710.9,1803.013h20.415a1.837,1.837,0,0,0,.433-.126c1.363-.683.936-5.9.772-7.513-.031-.3-.054-.474-.054-.474s-7.178-5.741-8.167-1.345c-.031.137-.067.272-.105.4v0c-1.246,4.114-6.817,5.982-10.035,6.5C1711.7,1800.865,1711.064,1802.3,1710.9,1803.013Z" transform="translate(-1659.213 -1618.586)"/>
      <path id="Path_72" data-name="Path 72" d="M1546.394,1803.013h20.415a1.838,1.838,0,0,0,.433-.126c1.363-.683.936-5.9.772-7.513-.031-.3-.054-.474-.054-.474s-7.178-5.741-8.167-1.345c-.031.137-.067.272-.105.4v0c-1.246,4.114-6.817,5.982-10.035,6.5C1547.2,1800.865,1546.558,1802.3,1546.394,1803.013Z" transform="translate(-1521.732 -1618.586)"/>
      <g id="Group_45" data-name="Group 45" transform="translate(73.928 59.969)">
        <path id="Path_73" data-name="Path 73" d="M2049.12,1117.522V1166.2h49.324v-48.678a15.571,15.571,0,0,0-15.571-15.571h-18.185A15.569,15.569,0,0,0,2049.12,1117.522Z" transform="translate(-2015.799 -1101.951)" fill="#d3aa89"/>
        <path id="Path_74" data-name="Path 74" d="M2049.12,1117.522V1166.2h46.158v-48.678c0-8.6-7.682-15.571-17.156-15.571h-11.847C2056.8,1101.951,2049.12,1108.922,2049.12,1117.522Z" transform="translate(-2015.799 -1101.951)" fill="#eac3a0"/>
        <path id="Path_75" data-name="Path 75" d="M1846.288,1475.63a2.943,2.943,0,0,0,.787,2.02,2.593,2.593,0,0,0,1.9.835h77.279a2.772,2.772,0,0,0,2.683-2.855,2.943,2.943,0,0,0-.785-2.021,2.6,2.6,0,0,0-1.9-.835h-77.279A2.774,2.774,0,0,0,1846.288,1475.63Z" transform="translate(-1846.288 -1411.856)" fill="#eac3a0"/>
        <path id="Path_76" data-name="Path 76" d="M2078.565,1475.63a2.941,2.941,0,0,0,.785,2.02,2.6,2.6,0,0,0,1.9.835h39.121a2.772,2.772,0,0,0,2.683-2.855,2.943,2.943,0,0,0-.785-2.021,2.6,2.6,0,0,0-1.9-.835h-39.121A2.772,2.772,0,0,0,2078.565,1475.63Z" transform="translate(-2040.407 -1411.856)" fill="#d3aa89"/>
        <g id="Group_40" data-name="Group 40" transform="translate(73.367 66.629)">
          <g id="Group_39" data-name="Group 39">
            <path id="Path_77" data-name="Path 77" d="M2292.891,1507.538l1.529,10.5,6.7,45.962a1.274,1.274,0,0,0,1.229,1.094h.022a.821.821,0,0,0,.787-.914l-4.154-50.9-.467-5.74Z" transform="translate(-2292.891 -1507.538)" fill="#eac3a0"/>
          </g>
          <path id="Path_78" data-name="Path 78" d="M2292.891,1507.538l1.529,10.5a8.508,8.508,0,0,1,4.583-4.762l-.467-5.74Z" transform="translate(-2292.891 -1507.538)" fill="#d3aa89"/>
        </g>
        <g id="Group_42" data-name="Group 42" transform="translate(34.596 66.629)">
          <g id="Group_41" data-name="Group 41">
            <path id="Path_79" data-name="Path 79" d="M2067.15,1507.538l-1.529,10.5-6.7,45.962a1.273,1.273,0,0,1-1.229,1.094h-.023a.822.822,0,0,1-.787-.914l4.154-50.9.467-5.74Z" transform="translate(-2056.881 -1507.538)" fill="#eac3a0"/>
          </g>
          <path id="Path_80" data-name="Path 80" d="M2088.3,1507.538l-1.529,10.5a8.506,8.506,0,0,0-4.583-4.762l.467-5.74Z" transform="translate(-2078.027 -1507.538)" fill="#d3aa89"/>
        </g>
        <g id="Group_44" data-name="Group 44" transform="translate(5.311 66.629)">
          <g id="Group_43" data-name="Group 43">
            <path id="Path_81" data-name="Path 81" d="M1888.885,1507.538l-1.529,10.5-6.7,45.962a1.274,1.274,0,0,1-1.229,1.094h-.023a.821.821,0,0,1-.787-.914l4.154-50.9.467-5.74Z" transform="translate(-1878.616 -1507.538)" fill="#eac3a0"/>
          </g>
          <path id="Path_82" data-name="Path 82" d="M1910.031,1507.538l-1.529,10.5a8.506,8.506,0,0,0-4.583-4.762l.467-5.74Z" transform="translate(-1899.762 -1507.538)" fill="#d3aa89"/>
        </g>
      </g>
      <path id="Path_83" data-name="Path 83" d="M2187.989,896.4s-6.718,6.418-13.979,2.641a23.112,23.112,0,0,1-.911-7.031c.036-.358.069-.705.1-1.036.314-3.279.4-5.128.4-5.128h.008c.36-.107,12.1-3.5,12.054-3.122C2184.51,891.563,2187.989,896.4,2187.989,896.4Z" transform="translate(-2045.444 -858.748)" fill="#ffb27d"/>
      <path id="Path_84" data-name="Path 84" d="M2185.044,894.4a17.69,17.69,0,0,1-11.107,6.261c.314-3.279.4-5.128.4-5.128h.008C2174.668,895.486,2185.431,893.846,2185.044,894.4Z" transform="translate(-2046.183 -868.434)" fill="#ed975d"/>
      <path id="Path_85" data-name="Path 85" d="M2155.2,795.06s12.323,4.344,14.909-3.372,5.919-12.351-1.839-15.45-10.282-.67-11.772,1.7S2152.066,793.732,2155.2,795.06Z" transform="translate(-2029.365 -768.553)" fill="#ffb27d"/>
      <path id="Path_86" data-name="Path 86" d="M1715.331,1293.388s5.085,20.871,0,29.469l-52.687-2.409s-6.359.379-5.423,8.12c.977,8.085-9.2,26.031-20.4,50.868,0,0-5.739.8-8.854-2.5,0,0,12.979-63.9,15.62-66.565,9.751-9.831,52.344-10.362,52.344-10.362Z" transform="translate(-1589.902 -1201.97)" fill="#313131"/>
      <path id="Path_87" data-name="Path 87" d="M2153.6,762.149c.161.129,2.791,1.26,9.056-8.446a8.992,8.992,0,0,0,.36-8.234c-1.551-3.284-7.975-6.431-13.415-8.087s-7.113,1.325-8.761,4.325c-1.73,3.149-5.99,5.434-5.99,5.434,4.5,3.195,10.684-.007,12.614.839s2.3,4.072,2.335,5.1.18,1.89,2.791,1.261.751,3.685.256,4.495C2152.844,758.833,2152.255,761.069,2153.6,762.149Z" transform="translate(-2013.515 -736.907)" fill="#a9453d"/>
      <path id="Path_88" data-name="Path 88" d="M1862.709,1293.388s5.085,20.871,0,29.469h-50.344s-5.752.386-4.816,8.128c.978,8.085,1.451,22.2-9.75,47.041,0,0-6.31,1.862-9.183-.188,0,0-.294-64.8,2.346-67.462,9.751-9.831,52.344-10.362,52.344-10.362Z" transform="translate(-1724.154 -1201.97)"/>
      <path id="Path_89" data-name="Path 89" d="M1813.262,932.349s-6.734-1.594-7.653-2.66-4.166-5.608-3.557-6.01,4.295,2.035,5.47,2.518,2.282.639,1.746.254-2.489-2.633-2.189-2.953,1.865.978,3.037,1.529a15.025,15.025,0,0,1,6.448,5.248C1818.158,932.37,1813.262,932.349,1813.262,932.349Z" transform="translate(-1735.328 -892.803)" fill="#ffb27d"/>
      <path id="Path_90" data-name="Path 90" d="M1927.556,973.627s-9.283,20.908-38.467,24.265c-9.11,1.048-23.531-30.006-23.531-30.006s2.049-2.708,4.963-2.051c0,0,17.028,15.984,19.209,17.778,1.936,1.591,19.526-14.285,26.423-15.926S1927.556,973.627,1927.556,973.627Z" transform="translate(-1788.464 -928.142)" fill="#efd005"/>
      <path id="Path_91" data-name="Path 91" d="M2024.039,960.264c-1.017,4.089-2.006,8.726-2.932,13.457l-.163.842c-.568,2.933-1.119,5.877-1.619,8.758q-.3,1.733-.571,3.424l-.022.152c-.1.412-.171.87-.234,1.288-1.787,10.814-2.931,19.429-2.764,19.611a1.225,1.225,0,0,0,.754.423c2.856.393,10.932,3.229,18.075,3.57a52.978,52.978,0,0,0,17.551-2.317c.8-.223,2.661-.882,2.749-1.723.112-.921.223-2.265.36-3.955a211.87,211.87,0,0,1,3.715-27.437q.669-3.2,1.157-6.355a97.7,97.7,0,0,0,1.228-15.588c-.081-8.953-3.066-16.353-6.663-19.993-.473-.462-2.691.751-5.919,1.78a9.461,9.461,0,0,1-7.184-.234l-3.336,1.551a7.758,7.758,0,0,0-1.474.9c-3.35,2.589-7.211,5.838-9.495,11.342q-.272.652-.542,1.4A92.771,92.771,0,0,0,2024.039,960.264Z" transform="translate(-1913.956 -901.891)" fill="#fedc01"/>
      <g id="Group_46" data-name="Group 46" transform="translate(120.956 90.212)">
        <path id="Path_92" data-name="Path 92" d="M2133.17,1291.035l.057,0a2.878,2.878,0,0,0,2.11-1.1,4.872,4.872,0,0,0,.684-3.373.612.612,0,0,0-1.208.2,3.684,3.684,0,0,1-.448,2.43,1.684,1.684,0,0,1-1.251.622.612.612,0,0,0,.056,1.222Z" transform="translate(-2132.559 -1286.05)" fill="#a57d62"/>
      </g>
      <path id="Path_93" data-name="Path 93" d="M2026.8,1093.479c5.292,2.5,15.055,6.057,23.3,3.127,12-4.256,15.049-42.929,15.049-42.929s-4.654-1.168-13.5,0c-5.761.762-16.218,16.553-22.805,27.465Z" transform="translate(-1923.219 -1001.205)" fill="#fedc01"/>
      <g id="Group_52" data-name="Group 52" transform="translate(0 87.99)">
        <g id="Group_48" data-name="Group 48" transform="translate(4.185 4.862)">
          <g id="Group_47" data-name="Group 47">
            <path id="Path_94" data-name="Path 94" d="M1422.626,1393.648a1.214,1.214,0,0,0,1.221-.94l5.984-31.836,8.607-45.786,2.407-12.8-6.13-.164-1.064,7.432-7.468,52.231-4.427,30.96A.832.832,0,0,0,1422.626,1393.648Z" transform="translate(-1421.747 -1302.118)" fill="#efcbab"/>
          </g>
          <path id="Path_95" data-name="Path 95" d="M1494.2,1309.55a8.312,8.312,0,0,1,4.787,5.536l2.407-12.8-6.13-.164Z" transform="translate(-1482.302 -1302.118)" fill="#c69d7f"/>
        </g>
        <g id="Group_50" data-name="Group 50" transform="translate(99.692 4.862)">
          <g id="Group_49" data-name="Group 49">
            <path id="Path_96" data-name="Path 96" d="M2019.216,1393.648a1.107,1.107,0,0,1-1.079-.94l-5.287-31.836-7.6-45.786-2.126-12.8,5.417-.164.94,7.432,6.6,52.231,3.912,30.96A.794.794,0,0,1,2019.216,1393.648Z" transform="translate(-2003.119 -1302.118)" fill="#efcbab"/>
          </g>
          <path id="Path_97" data-name="Path 97" d="M2009.475,1309.55a8.239,8.239,0,0,0-4.23,5.536l-2.126-12.8,5.417-.164Z" transform="translate(-2003.119 -1302.118)" fill="#c69d7f"/>
        </g>
        <g id="Group_51" data-name="Group 51" transform="translate(29.267 4.862)">
          <path id="Path_98" data-name="Path 98" d="M1574.431,1392.741l4.427-30.96,7.468-52.231,1.063-7.432,6.131.164-2.407,12.8-8.607,45.786-5.984,31.836a1.214,1.214,0,0,1-1.221.94A.832.832,0,0,1,1574.431,1392.741Z" transform="translate(-1574.424 -1302.118)" fill="#c69d7f"/>
          <path id="Path_99" data-name="Path 99" d="M2126.748,1309.55l6.6,52.231,3.912,30.96a.794.794,0,0,1-.77.907,1.107,1.107,0,0,1-1.078-.94l-5.287-31.836-7.6-45.786-2.126-12.8,5.417-.164Z" transform="translate(-2030.701 -1302.118)" fill="#c69d7f"/>
        </g>
        <path id="Path_100" data-name="Path 100" d="M1396.269,1275.949v3.194a3.344,3.344,0,0,0,3.229,3.431h132.285a3.344,3.344,0,0,0,3.229-3.431v-3.194a3.343,3.343,0,0,0-3.229-3.428H1399.5A3.343,3.343,0,0,0,1396.269,1275.949Z" transform="translate(-1396.269 -1272.521)" fill="#c69d7f"/>
        <path id="Path_101" data-name="Path 101" d="M1396.269,1275.949v3.194a3.344,3.344,0,0,0,3.229,3.431h98.073a3.344,3.344,0,0,0,3.229-3.431v-3.194a3.343,3.343,0,0,0-3.229-3.428H1399.5A3.343,3.343,0,0,0,1396.269,1275.949Z" transform="translate(-1396.269 -1272.521)" fill="#efcbab"/>
      </g>
      <g id="Group_53" data-name="Group 53" transform="translate(72.441 64.358)">
        <path id="Path_102" data-name="Path 102" d="M1837.236,1136.948l.917-8.281,25.254,20.11-5.763,3.619Z" transform="translate(-1837.236 -1128.667)" fill="#f99746"/>
        <path id="Path_103" data-name="Path 103" d="M1846.348,1137.585l-9.111,6.816,20.409,15.448,9.309-5.846Z" transform="translate(-1837.236 -1136.12)"/>
        <path id="Path_104" data-name="Path 104" d="M1845.819,1128.667l-.621,7.3,5.138-3.843Z" transform="translate(-1843.89 -1128.667)" fill="#c5d6e2"/>
        <path id="Path_105" data-name="Path 105" d="M1840.779,1128.667l-.729.565-.882,7.479.991-.741Z" transform="translate(-1838.85 -1128.667)" fill="#d5e4ef"/>
        <path id="Path_106" data-name="Path 106" d="M1850.983,1137.245l-.442-.417-6.971,5.08-.32,1.105Z" transform="translate(-1842.262 -1135.488)" fill="#d5e4ef"/>
      </g>
      <path id="Path_107" data-name="Path 107" d="M1902.8,1178.965c-1-.915-3.275-2.939-3.453-2.575a1.687,1.687,0,0,0,.184,1.265c-1.436-.754-2.919-1.318-6.627-1.083a2.735,2.735,0,0,0-1.929.946,1.206,1.206,0,0,0,.179,1.92c1.7,1.383,1.253.627,3.607,2.625s5.443,2.824,7.469,1.889l2.573-.1.839-4.1S1904.227,1179.394,1902.8,1178.965Z" transform="translate(-1809.374 -1104.156)" fill="#ffb27d"/>
      <path id="Path_108" data-name="Path 108" d="M2016.213,983.658s-8.737,41.849-20.291,44.454c-4.849,1.093-29.324-7.427-29.324-7.427s-2.634-5.174.941-7.056c0,0,23.167,1.223,23.99.659.945-.648,4.533-29.842,7.005-31.2S2015.273,976.719,2016.213,983.658Z" transform="translate(-1872.124 -940.122)" fill="#efd005"/>
    </g>
  </g>
</svg>
