<svg xmlns="http://www.w3.org/2000/svg" width="99.998" height="100" viewBox="0 0 99.998 100">
  <g id="Group_67" data-name="Group 67" transform="translate(-49.753 -50)">
    <g id="coin" transform="translate(49.747 50)">
      <path id="Path_113" data-name="Path 113" d="M180.149,54.28a27.14,27.14,0,1,0-27.14-27.14A27.171,27.171,0,0,0,180.149,54.28Zm0-48.587A21.446,21.446,0,1,1,158.7,27.14,21.471,21.471,0,0,1,180.149,5.694Z" transform="translate(-121.14)" fill="#fedc01"/>
      <g id="Group_71" data-name="Group 71" transform="translate(49.711 11.387)">
        <path id="Path_114" data-name="Path 114" d="M264.351,72.967a20.3,20.3,0,0,1-4.891-2.254,1.112,1.112,0,0,1-.109-.877,1.583,1.583,0,0,1,1.012-1.253A3.438,3.438,0,0,1,263.4,69a2.846,2.846,0,0,0,3.85-4.193,9.266,9.266,0,0,0-3.205-1.73v-.234a2.847,2.847,0,1,0-5.694,0v.412c-5.117,1.861-6.32,8.861-2.4,11.935a23.766,23.766,0,0,0,6.5,3.14,1.9,1.9,0,0,1,1.427,2.272,2.7,2.7,0,0,1-2.7,2.3,5.049,5.049,0,0,1-3.734-.964,2.847,2.847,0,1,0-3.118,4.764,10.307,10.307,0,0,0,4.025,1.711v.274a2.847,2.847,0,1,0,5.694,0v-.6C270.938,85.6,271.853,75.62,264.351,72.967Z" transform="translate(-253.034 -60)" fill="#fedc01"/>
      </g>
      <path id="Path_115" data-name="Path 115" d="M84.779,277.524,51.194,284.95a10.058,10.058,0,0,0-2.628-1.675L31.32,275.756a19.476,19.476,0,0,0-15.737.067L1.722,281.952a2.814,2.814,0,0,0-1.453,3.77,2.965,2.965,0,0,0,3.88,1.412L18.024,281a13.476,13.476,0,0,1,10.895-.049l17.245,7.518a4.081,4.081,0,0,1,2.473,3.717,4.183,4.183,0,0,1-5.916,3.717L27.81,289.381a2.964,2.964,0,0,0-3.874,1.428,2.815,2.815,0,0,0,1.469,3.764l14.912,6.521c7.5,3.28,15.711-3.136,13.949-10.985,21.875-4.837,31.939-7.059,32.078-7.1a6.034,6.034,0,0,1,7.8,5.657,5.893,5.893,0,0,1-2.971,5.074L59.611,311.805a13.379,13.379,0,0,1-10.986,1.06l-24.214-8.235a3.01,3.01,0,0,0-2.011.027L1.893,312.249A2.823,2.823,0,0,0,.2,315.923a2.956,2.956,0,0,0,3.781,1.647l19.507-7.221,23.2,7.891a19.369,19.369,0,0,0,15.9-1.532l31.563-18.064a11.584,11.584,0,0,0,5.85-9.976c0-7.633-7.523-13.291-15.225-11.144Z" transform="translate(0 -219.277)" fill="#fedc01"/>
    </g>
  </g>
</svg>
