<svg xmlns="http://www.w3.org/2000/svg" width="103.255" height="50" viewBox="0 0 103.255 50">
  <g id="Group_3" data-name="Group 3" transform="translate(-134.801 -215.535)">
    <g id="Group_1" data-name="Group 1" transform="translate(134.801 215.535)">
      <path id="Path_1" data-name="Path 1" d="M134.8,223.189h5.68v10.756c0,5.236,2.618,8.983,7.09,8.983,4.391,0,7.01-3.747,7.01-8.983V223.189h5.68v11.279c0,7.493-5.438,13.7-12.73,13.7-7.09,0-12.73-5.962-12.73-13.7Zm15.187-3.022h-4.995v-4.632h4.995Z" transform="translate(-134.801 -215.535)"/>
      <path id="Path_2" data-name="Path 2" d="M194.418,244.135H174.155v-5.4h14.623c0-5.64-3.061-8.137-10.232-8.137v-4.714a25.342,25.342,0,0,1,7.534.766c5.479,1.933,8.339,5.962,8.339,12.045Z" transform="translate(-144.719 -218.193)" fill="#fedc01"/>
      <path id="Path_3" data-name="Path 3" d="M224.522,243.3c0,4.955-3.062,7.453-9.225,7.453h-.563v-4.512h.362c2.256,0,4.472-1.571,4.472-3.747a4.288,4.288,0,0,1-3.989,1.853c-5.2,0-9.063-3.947-9.063-9.346,0-5.519,3.786-9.225,9.063-9.225,5.2,0,8.944,3.988,8.944,9.3Zm-5.64-8.218c0-2.457-1.41-4.189-3.424-4.189-1.974,0-3.3,1.692-3.3,4.069,0,2.256,1.29,4.149,3.505,4.149C217.673,239.112,218.882,237.542,218.882,235.084Z" transform="translate(-152.883 -218.165)" fill="#fedc01"/>
      <path id="Path_4" data-name="Path 4" d="M265.868,253.151v4.668h4.995v-4.668Z" transform="translate(-167.927 -225.193)"/>
      <path id="Path_5" data-name="Path 5" d="M263.333,225.881v10.48a8.071,8.071,0,0,1-1.769,5.314,6.7,6.7,0,0,1-5.522,2.46h-9.789c-.929,4.43-4.549,6.645-10.956,6.645v-4.549q5.563,0,5.56-5.322V225.881h5.678v12.851h8.3c1.9,0,2.862-1.323,2.862-3.947v-8.9Z" transform="translate(-160.079 -218.191)"/>
    </g>
    <g id="Group_2" data-name="Group 2" transform="translate(135.207 254.541)">
      <path id="Path_6" data-name="Path 6" d="M142.516,276.6h-.58a2.316,2.316,0,0,1-2.411-1.842,2.062,2.062,0,0,1-1.931.971c-1.288,0-2.247-1.325-2.247-3,0-1.792.959-3.054,2.4-3.054h2.676v4.051c0,1.262.593,2.007,1.616,2.007h.479Zm-3-4.039v-2.234h-1.6c-1,0-1.678,1.022-1.678,2.348,0,1.287.668,2.361,1.653,2.361C138.944,275.033,139.487,274.211,139.512,272.558Zm-1.325-3.812h-.9v-1.073h.9Zm1.653,0h-.9v-1.073h.9Z" transform="translate(-135.347 -267.673)"/>
      <path id="Path_7" data-name="Path 7" d="M151.237,277.692h-6.942v-.883h1.931a3.731,3.731,0,0,1,.24-3.952,2.5,2.5,0,0,1,2.083-.921,2.962,2.962,0,0,1,1.692.48,2.1,2.1,0,0,1,.971,1.452l-1.073.113a1.443,1.443,0,0,0-1.578-1.338,1.481,1.481,0,0,0-1.376.77,3.386,3.386,0,0,0-.341,1.629,2.446,2.446,0,0,0,.581,1.767h3.811Z" transform="translate(-137.644 -268.768)"/>
      <path id="Path_8" data-name="Path 8" d="M159.641,277.7H157.47a2.43,2.43,0,0,1-2.562,2.07v-.845c1.174,0,1.767-.644,1.767-2.133V271.97h.884v4.847h2.083Z" transform="translate(-140.369 -268.776)"/>
      <path id="Path_9" data-name="Path 9" d="M172.791,277.7H160.8v-.883h1.174c.808,0,1.325-.543,1.325-1.616V271.97h.9v3.509a3.421,3.421,0,0,1-.215,1.287v.051h1.654c.808,0,1.073-.392,1.073-1.73V271.97h.884v3.509a3.148,3.148,0,0,1-.239,1.339h1.514c.947,0,1.263-.392,1.263-1.73V271.97h.883v3.509a3.124,3.124,0,0,1-.252,1.339h2.032Z" transform="translate(-141.771 -268.776)"/>
      <path id="Path_10" data-name="Path 10" d="M179.659,271.97v3.509c0,1.477-.618,2.222-1.855,2.222h-1.11v-.871h.82a1.076,1.076,0,0,0,1.073-.53,2.715,2.715,0,0,0,.19-1.212V271.97Zm0,7.649h-.9v-1.073h.9Z" transform="translate(-145.799 -268.776)"/>
      <path id="Path_11" data-name="Path 11" d="M195.778,276.859h-7.826q-3.635,0-3.635-3.673v-2.07h.884v2.07c0,1.881.9,2.79,2.676,2.79h3.661c.921,0,1.249-.366,1.249-1.73v-5.554h.884v5.945a3.136,3.136,0,0,1-.24,1.339h2.348Zm-5.264-5.819-.631.05a.551.551,0,0,0-.58-.529c-.417,0-.631.278-.631.833a.938.938,0,0,0,.151.555h1.666v.618H187.51v-.618h.618a1.538,1.538,0,0,1-.1-.543,1.216,1.216,0,0,1,1.263-1.363A1.134,1.134,0,0,1,190.514,271.04Z" transform="translate(-147.708 -267.935)"/>
      <path id="Path_12" data-name="Path 12" d="M203.75,277.016h-4.355v-.871h.808a1.09,1.09,0,0,0,1.073-.517,2.818,2.818,0,0,0,.19-1.224v-3.118h.884v3.509a3.136,3.136,0,0,1-.24,1.339h1.641Zm-3.067-6.639h-.9V269.3h.9Zm1.654,0h-.9V269.3h.9Z" transform="translate(-151.534 -268.092)"/>
      <path id="Path_13" data-name="Path 13" d="M209.319,277.7h-4.355v-.871h.808a1.09,1.09,0,0,0,1.073-.517,2.818,2.818,0,0,0,.19-1.224V271.97h.884v3.509a3.136,3.136,0,0,1-.24,1.339h1.641Zm-1.4,1.918h-.9v-1.073h.9Z" transform="translate(-152.942 -268.776)"/>
      <path id="Path_14" data-name="Path 14" d="M219.161,276.483v1.275h-8.747v-.883h7.675c.013-.164.025-.316.025-.455,0-2.133-1.124-3.357-3.105-3.357a2.58,2.58,0,0,0-2.373,1.249c-.126-.138-.379-.391-.77-.782A3.763,3.763,0,0,1,215,272.191,3.964,3.964,0,0,1,219.161,276.483Zm-3.484,3.193h-.909V278.6h.909Z" transform="translate(-154.305 -268.833)"/>
      <path id="Path_15" data-name="Path 15" d="M228.748,274.734v1.88c0,2.057-.808,3.042-2.663,3.142v-.845c1.161,0,1.754-.708,1.779-2.133a1.57,1.57,0,0,1-1.49.719,2.537,2.537,0,0,1-2.411-2.8,2.5,2.5,0,0,1,2.411-2.778A2.53,2.53,0,0,1,228.748,274.734Zm-.858,0c0-1.137-.631-2.033-1.565-2.033s-1.489.884-1.489,1.982c0,1.149.632,2.02,1.553,2.02S227.89,275.832,227.89,274.734Z" transform="translate(-157.742 -268.763)"/>
      <path id="Path_16" data-name="Path 16" d="M246.144,277.7H238.33q-3.635,0-3.634-3.673v-2.07h.883v2.07c0,1.856.884,2.79,2.638,2.79h3.7a1.109,1.109,0,0,0,1.073-.505,3.074,3.074,0,0,0,.177-1.224v-3.118h.884v3.509a3.136,3.136,0,0,1-.24,1.339h2.335Zm-6.072,1.918h-.9v-1.073h.9Z" transform="translate(-160.425 -268.772)"/>
      <path id="Path_17" data-name="Path 17" d="M254.129,276.859h-4.355v-.871h.808a1.09,1.09,0,0,0,1.073-.517,2.818,2.818,0,0,0,.19-1.224v-5.554h.883v5.945a3.137,3.137,0,0,1-.239,1.339h1.641Z" transform="translate(-164.201 -267.935)"/>
      <path id="Path_18" data-name="Path 18" d="M265.019,276.863H254.833v-.871h2.335v-7.283h.922l-.2,5.869c.858-2.083,2.537-3.458,4.178-3.458,2.019,0,3.029,1.439,3.029,4.279C265.1,275.84,265.071,276.333,265.019,276.863Zm-.87-.871c.025-.278.038-.543.038-.8,0-1.994-.833-3.269-2.2-3.269-1.6,0-3.5,1.944-4.09,4.064Z" transform="translate(-165.5 -267.939)"/>
      <path id="Path_19" data-name="Path 19" d="M271.8,276.859h-.884v-8.167h.884Z" transform="translate(-169.629 -267.935)"/>
    </g>
  </g>
</svg>
