<svg xmlns="http://www.w3.org/2000/svg" width="26.18" height="24" viewBox="0 0 26.18 24">
  <g id="menu-right" transform="translate(-3 -7.5)">
    <path id="Path_341" data-name="Path 341" d="M33,27.008A1.492,1.492,0,0,1,31.508,28.5H19.493a1.493,1.493,0,0,1,0-2.985H31.508A1.491,1.491,0,0,1,33,27.007Z" transform="translate(-3.821 3)"/>
    <path id="Path_342" data-name="Path 342" d="M29.179,18a1.407,1.407,0,0,1-1.3,1.492H4.3a1.506,1.506,0,0,1,0-2.985H27.876A1.407,1.407,0,0,1,29.178,18Z" transform="translate(0 1.5)"/>
    <path id="Path_343" data-name="Path 343" d="M31.508,10.485a1.493,1.493,0,1,0,0-2.985H13.492a1.492,1.492,0,1,0,0,2.985H31.507Z" transform="translate(-3.821)"/>
  </g>
</svg>
