<svg xmlns="http://www.w3.org/2000/svg" width="85.155" height="100" viewBox="0 0 85.155 100">
  <g id="surface1" transform="translate(0 0.001)">
    <path id="Path_116" data-name="Path 116" d="M85.056,27.132l0-.078c-.044-.961-.072-1.977-.09-3.108a10.6,10.6,0,0,0-9.979-10.383c-11.5-.642-20.392-4.391-27.991-11.8L46.928,1.7a6.4,6.4,0,0,0-8.7,0l-.065.062c-7.6,7.407-16.494,11.156-27.991,11.8A10.6,10.6,0,0,0,.195,23.947C.178,25.07.148,26.086.1,27.054l0,.181C-.123,38.959-.4,53.55,4.48,66.794A50.358,50.358,0,0,0,16.561,85.612C22.634,91.538,30.589,96.243,40.2,99.6a7.324,7.324,0,0,0,.969.264,7.156,7.156,0,0,0,2.814,0,7.346,7.346,0,0,0,.973-.265c9.6-3.359,17.549-8.066,23.617-13.992A50.428,50.428,0,0,0,80.656,66.78C85.556,53.5,85.279,38.878,85.056,27.132ZM75.151,64.75C70,78.708,59.493,88.295,43.022,94.055a1.474,1.474,0,0,1-.186.05,1.317,1.317,0,0,1-.516,0,1.463,1.463,0,0,1-.185-.05c-16.488-5.749-27-15.33-32.149-29.29-4.5-12.208-4.244-25.6-4.019-37.418l0-.066c.046-1.016.076-2.079.093-3.248a4.711,4.711,0,0,1,4.44-4.611,51.483,51.483,0,0,0,17.474-3.844,45.718,45.718,0,0,0,14.24-9.567.541.541,0,0,1,.726,0,45.735,45.735,0,0,0,14.24,9.567,51.486,51.486,0,0,0,17.475,3.844A4.71,4.71,0,0,1,79.1,24.034c.018,1.175.048,2.238.094,3.247C79.414,39.111,79.663,52.516,75.151,64.75Zm0,0" transform="translate(0 0)" fill="#fedc01"/>
    <path id="Path_117" data-name="Path 117" d="M115.32,128.41a24.922,24.922,0,1,0,24.921,24.921A24.95,24.95,0,0,0,115.32,128.41Zm0,43.975a19.054,19.054,0,1,1,19.053-19.054A19.075,19.075,0,0,1,115.32,172.385Zm0,0" transform="translate(-72.742 -103.331)" fill="#fedc01"/>
    <path id="Path_118" data-name="Path 118" d="M173.4,212.851l-11.575,11.575-3.142-3.142a2.934,2.934,0,1,0-4.15,4.149l5.217,5.217a2.934,2.934,0,0,0,4.149,0L177.548,217a2.934,2.934,0,1,0-4.15-4.149Zm0,0" transform="translate(-123.658 -170.587)" fill="#fedc01"/>
  </g>
</svg>
