<svg id="Group_112" data-name="Group 112" xmlns="http://www.w3.org/2000/svg" width="35.42" height="25" viewBox="0 0 35.42 25">
  <path id="Path_123" data-name="Path 123" d="M35.3,75.885a1.067,1.067,0,0,0-.947-.575H1.067a1.067,1.067,0,0,0-.873,1.68A10.6,10.6,0,0,0,8.864,81.5h7.779v9.079H15.5a1.067,1.067,0,1,0,0,2.134h1.007a6.806,6.806,0,0,1-6.663,5.466,1.067,1.067,0,1,0,0,2.134,8.937,8.937,0,0,0,7.861-4.7,8.937,8.937,0,0,0,7.861,4.7,1.067,1.067,0,0,0,0-2.134,6.806,6.806,0,0,1-6.663-5.466h1.007a1.067,1.067,0,0,0,0-2.134H18.776V81.5h7.779a10.6,10.6,0,0,0,8.671-4.508A1.067,1.067,0,0,0,35.3,75.885Zm-8.744,3.479H8.864A8.467,8.467,0,0,1,3.5,77.444H31.92A8.467,8.467,0,0,1,26.555,79.364Z" transform="translate(0 -75.31)"/>
</svg>
